<mxfile host="app.diagrams.net" modified="2024-03-05T07:17:45.565Z" agent="Mozilla/5.0 (Macintosh; Intel Mac OS X 10_15_7) AppleWebKit/537.36 (KHTML, like Gecko) Chrome/122.0.0.0 Safari/537.36" etag="f6sXVVdNobxiZK2ZaJIZ" version="24.0.1" type="github">
  <diagram name="Page-1" id="8UkeEsG8CBlmwoBD3Vzl">
    <mxGraphModel dx="2074" dy="1146" grid="1" gridSize="10" guides="1" tooltips="1" connect="1" arrows="1" fold="1" page="1" pageScale="1" pageWidth="850" pageHeight="1100" math="0" shadow="0">
      <root>
        <mxCell id="0" />
        <mxCell id="1" parent="0" />
        <mxCell id="nkol4YsRaVg4eansRC3j-1" value="Config 1 DMA" style="rounded=0;whiteSpace=wrap;html=1;fillColor=#f8cecc;strokeColor=#b85450;" parent="1" vertex="1">
          <mxGeometry x="160" y="340" width="80" height="40" as="geometry" />
        </mxCell>
        <mxCell id="nkol4YsRaVg4eansRC3j-2" value="Door&lt;br&gt;Bell 1" style="rounded=0;whiteSpace=wrap;html=1;fillColor=#e1d5e7;strokeColor=#9673a6;" parent="1" vertex="1">
          <mxGeometry x="320" y="340" width="40" height="40" as="geometry" />
        </mxCell>
        <mxCell id="nkol4YsRaVg4eansRC3j-3" value="Door&lt;br&gt;Bell Flag 1" style="rounded=0;whiteSpace=wrap;html=1;fillColor=#ffff88;strokeColor=#36393d;" parent="1" vertex="1">
          <mxGeometry x="680" y="340" width="40" height="40" as="geometry" />
        </mxCell>
        <mxCell id="nkol4YsRaVg4eansRC3j-4" value="1 Data Transport Channel&lt;div&gt;（第一轮传输第一组数据&amp;nbsp;&lt;span style=&quot;background-color: initial;&quot;&gt;80K 3.3us）&lt;/span&gt;&lt;/div&gt;" style="rounded=0;whiteSpace=wrap;html=1;fillColor=#d5e8d4;strokeColor=#82b366;" parent="1" vertex="1">
          <mxGeometry x="360" y="460" width="280" height="40" as="geometry" />
        </mxCell>
        <mxCell id="nkol4YsRaVg4eansRC3j-5" value="1 Calculate Data 1（80K 2.4us）" style="rounded=0;whiteSpace=wrap;html=1;fillColor=#dae8fc;strokeColor=#6c8ebf;" parent="1" vertex="1">
          <mxGeometry x="120" y="220" width="200" height="40" as="geometry" />
        </mxCell>
        <mxCell id="nkol4YsRaVg4eansRC3j-6" value="CPEs" style="text;html=1;align=center;verticalAlign=middle;whiteSpace=wrap;rounded=0;" parent="1" vertex="1">
          <mxGeometry x="40" y="230" width="60" height="30" as="geometry" />
        </mxCell>
        <mxCell id="nkol4YsRaVg4eansRC3j-7" value="MPEs" style="text;html=1;align=center;verticalAlign=middle;whiteSpace=wrap;rounded=0;" parent="1" vertex="1">
          <mxGeometry x="40" y="345" width="60" height="30" as="geometry" />
        </mxCell>
        <mxCell id="nkol4YsRaVg4eansRC3j-8" value="PCIE" style="text;html=1;align=center;verticalAlign=middle;whiteSpace=wrap;rounded=0;" parent="1" vertex="1">
          <mxGeometry x="40" y="460" width="60" height="30" as="geometry" />
        </mxCell>
        <mxCell id="nkol4YsRaVg4eansRC3j-9" value="1 Calculate Data 2（80K 2.4us）" style="rounded=0;whiteSpace=wrap;html=1;fillColor=#dae8fc;strokeColor=#6c8ebf;" parent="1" vertex="1">
          <mxGeometry x="320" y="220" width="200" height="40" as="geometry" />
        </mxCell>
        <mxCell id="nkol4YsRaVg4eansRC3j-10" value="Config 2 DMA" style="rounded=0;whiteSpace=wrap;html=1;fillColor=#f8cecc;strokeColor=#b85450;" parent="1" vertex="1">
          <mxGeometry x="240" y="340" width="80" height="40" as="geometry" />
        </mxCell>
        <mxCell id="nkol4YsRaVg4eansRC3j-11" value="Door&lt;br&gt;Bell 2" style="rounded=0;whiteSpace=wrap;html=1;fillColor=#e1d5e7;strokeColor=#9673a6;" parent="1" vertex="1">
          <mxGeometry x="600" y="340" width="40" height="40" as="geometry" />
        </mxCell>
        <mxCell id="nkol4YsRaVg4eansRC3j-12" value="Config 1&amp;nbsp;Flag" style="rounded=0;whiteSpace=wrap;html=1;fillColor=#ffff88;strokeColor=#36393d;" parent="1" vertex="1">
          <mxGeometry x="360" y="340" width="80" height="40" as="geometry" />
        </mxCell>
        <mxCell id="nkol4YsRaVg4eansRC3j-13" value="1 Calculate Data 3（80K 2.4us）" style="rounded=0;whiteSpace=wrap;html=1;fillColor=#dae8fc;strokeColor=#6c8ebf;" parent="1" vertex="1">
          <mxGeometry x="520" y="220" width="200" height="40" as="geometry" />
        </mxCell>
        <mxCell id="nkol4YsRaVg4eansRC3j-14" value="2 Calculate Data 1（80K&lt;br&gt;1.1 us）" style="rounded=0;whiteSpace=wrap;html=1;fillColor=#eeeeee;strokeColor=#36393d;" parent="1" vertex="1">
          <mxGeometry x="720" y="220" width="80" height="40" as="geometry" />
        </mxCell>
        <mxCell id="nkol4YsRaVg4eansRC3j-15" value="Poll 1 DMA" style="rounded=0;whiteSpace=wrap;html=1;fillColor=#f8cecc;strokeColor=#b85450;" parent="1" vertex="1">
          <mxGeometry x="640" y="340" width="40" height="40" as="geometry" />
        </mxCell>
        <mxCell id="nkol4YsRaVg4eansRC3j-16" value="2 Data Transport Channel&lt;div&gt;（第一轮传输第二组数据&amp;nbsp;&lt;span style=&quot;background-color: initial;&quot;&gt;80K 3.3us）&lt;/span&gt;&lt;br&gt;&lt;/div&gt;" style="rounded=0;whiteSpace=wrap;html=1;fillColor=#d5e8d4;strokeColor=#82b366;" parent="1" vertex="1">
          <mxGeometry x="640" y="460" width="280" height="40" as="geometry" />
        </mxCell>
        <mxCell id="nkol4YsRaVg4eansRC3j-17" value="Poll&lt;br&gt;Flag 1" style="rounded=0;whiteSpace=wrap;html=1;fillColor=#ffff88;strokeColor=#36393d;" parent="1" vertex="1">
          <mxGeometry x="800" y="340" width="40" height="40" as="geometry" />
        </mxCell>
        <mxCell id="nkol4YsRaVg4eansRC3j-18" value="Config 3 DMA" style="rounded=0;whiteSpace=wrap;html=1;fillColor=#f8cecc;strokeColor=#b85450;" parent="1" vertex="1">
          <mxGeometry x="720" y="340" width="80" height="40" as="geometry" />
        </mxCell>
        <mxCell id="nkol4YsRaVg4eansRC3j-19" value="Door&lt;br&gt;Bell 3" style="rounded=0;whiteSpace=wrap;html=1;fillColor=#e1d5e7;strokeColor=#9673a6;" parent="1" vertex="1">
          <mxGeometry x="880" y="340" width="40" height="40" as="geometry" />
        </mxCell>
        <mxCell id="nkol4YsRaVg4eansRC3j-20" value="3 Data Transport Channel&lt;br&gt;（第二轮需要发送的 80K 耗时3.3us）" style="rounded=0;whiteSpace=wrap;html=1;fillColor=#d5e8d4;strokeColor=#82b366;" parent="1" vertex="1">
          <mxGeometry x="920" y="460" width="240" height="40" as="geometry" />
        </mxCell>
        <mxCell id="nkol4YsRaVg4eansRC3j-21" value="2 Calculate Data 2（80K 1.1 us）" style="rounded=0;whiteSpace=wrap;html=1;fillColor=#eeeeee;strokeColor=#36393d;" parent="1" vertex="1">
          <mxGeometry x="1000" y="220" width="80" height="40" as="geometry" />
        </mxCell>
        <mxCell id="nkol4YsRaVg4eansRC3j-22" value="Config 2 Flag" style="rounded=0;whiteSpace=wrap;html=1;fillColor=#ffff88;strokeColor=#36393d;" parent="1" vertex="1">
          <mxGeometry x="440" y="340" width="80" height="40" as="geometry" />
        </mxCell>
        <mxCell id="nkol4YsRaVg4eansRC3j-23" value="Config 3 Flag" style="rounded=0;whiteSpace=wrap;html=1;fillColor=#ffff88;strokeColor=#36393d;" parent="1" vertex="1">
          <mxGeometry x="1000" y="340" width="80" height="40" as="geometry" />
        </mxCell>
        <mxCell id="nkol4YsRaVg4eansRC3j-24" value="1 Calculate Data 3（80K 2.4us）" style="rounded=0;whiteSpace=wrap;html=1;fillColor=#dae8fc;strokeColor=#6c8ebf;" parent="1" vertex="1">
          <mxGeometry x="800" y="220" width="200" height="40" as="geometry" />
        </mxCell>
        <mxCell id="nkol4YsRaVg4eansRC3j-25" value="Poll 2 DMA" style="rounded=0;whiteSpace=wrap;html=1;fillColor=#f8cecc;strokeColor=#b85450;" parent="1" vertex="1">
          <mxGeometry x="920" y="340" width="40" height="40" as="geometry" />
        </mxCell>
        <mxCell id="nkol4YsRaVg4eansRC3j-26" value="Door&lt;br&gt;Bell Flag 2" style="rounded=0;whiteSpace=wrap;html=1;fillColor=#ffff88;strokeColor=#36393d;" parent="1" vertex="1">
          <mxGeometry x="960" y="340" width="40" height="40" as="geometry" />
        </mxCell>
        <mxCell id="nkol4YsRaVg4eansRC3j-27" value="" style="endArrow=none;dashed=1;html=1;rounded=0;strokeWidth=4;" parent="1" edge="1">
          <mxGeometry width="50" height="50" relative="1" as="geometry">
            <mxPoint x="40" y="300" as="sourcePoint" />
            <mxPoint x="2320" y="300" as="targetPoint" />
          </mxGeometry>
        </mxCell>
        <mxCell id="nkol4YsRaVg4eansRC3j-28" value="" style="endArrow=none;dashed=1;html=1;rounded=0;strokeWidth=4;" parent="1" edge="1">
          <mxGeometry width="50" height="50" relative="1" as="geometry">
            <mxPoint x="40" y="420" as="sourcePoint" />
            <mxPoint x="2320" y="420" as="targetPoint" />
          </mxGeometry>
        </mxCell>
        <mxCell id="nkol4YsRaVg4eansRC3j-30" value="Config 4 DMA" style="rounded=0;whiteSpace=wrap;html=1;fillColor=#f8cecc;strokeColor=#b85450;" parent="1" vertex="1">
          <mxGeometry x="1080" y="340" width="80" height="40" as="geometry" />
        </mxCell>
        <mxCell id="nkol4YsRaVg4eansRC3j-31" value="Poll 3 DMA" style="rounded=0;whiteSpace=wrap;html=1;fillColor=#f8cecc;strokeColor=#b85450;" parent="1" vertex="1">
          <mxGeometry x="1160" y="340" width="40" height="40" as="geometry" />
        </mxCell>
        <mxCell id="nkol4YsRaVg4eansRC3j-32" value="Door&lt;br&gt;Bell Flag 3" style="rounded=0;whiteSpace=wrap;html=1;fillColor=#ffff88;strokeColor=#36393d;" parent="1" vertex="1">
          <mxGeometry x="1200" y="340" width="40" height="40" as="geometry" />
        </mxCell>
        <mxCell id="nkol4YsRaVg4eansRC3j-34" value="3 Calculate Data 1（40K 1.6 us）" style="rounded=0;whiteSpace=wrap;html=1;fillColor=#eeeeee;strokeColor=#36393d;" parent="1" vertex="1">
          <mxGeometry x="1240" y="220" width="120" height="40" as="geometry" />
        </mxCell>
        <mxCell id="nkol4YsRaVg4eansRC3j-35" value="Door&lt;br&gt;Bell 4" style="rounded=0;whiteSpace=wrap;html=1;fillColor=#e1d5e7;strokeColor=#9673a6;" parent="1" vertex="1">
          <mxGeometry x="1360" y="340" width="40" height="40" as="geometry" />
        </mxCell>
        <mxCell id="nkol4YsRaVg4eansRC3j-36" value="4 Data Transport Channel&lt;br&gt;（第四轮发送的 40K 耗时1.9us）" style="rounded=0;whiteSpace=wrap;html=1;fillColor=#d5e8d4;strokeColor=#82b366;" parent="1" vertex="1">
          <mxGeometry x="1400" y="460" width="200" height="40" as="geometry" />
        </mxCell>
        <mxCell id="nkol4YsRaVg4eansRC3j-37" value="Config 4 Flag" style="rounded=0;whiteSpace=wrap;html=1;fillColor=#ffff88;strokeColor=#36393d;" parent="1" vertex="1">
          <mxGeometry x="1400" y="340" width="80" height="40" as="geometry" />
        </mxCell>
        <mxCell id="nkol4YsRaVg4eansRC3j-38" value="Poll 4 DMA" style="rounded=0;whiteSpace=wrap;html=1;fillColor=#f8cecc;strokeColor=#b85450;" parent="1" vertex="1">
          <mxGeometry x="1600" y="340" width="40" height="40" as="geometry" />
        </mxCell>
        <mxCell id="nkol4YsRaVg4eansRC3j-40" value="Door&lt;br&gt;Bell Flag 4" style="rounded=0;whiteSpace=wrap;html=1;fillColor=#ffff88;strokeColor=#36393d;" parent="1" vertex="1">
          <mxGeometry x="1640" y="340" width="40" height="40" as="geometry" />
        </mxCell>
        <mxCell id="nkol4YsRaVg4eansRC3j-42" value="Poll&lt;br&gt;Flag 1" style="rounded=0;whiteSpace=wrap;html=1;fillColor=#ffff88;strokeColor=#36393d;" parent="1" vertex="1">
          <mxGeometry x="1240" y="340" width="40" height="40" as="geometry" />
        </mxCell>
        <mxCell id="nkol4YsRaVg4eansRC3j-43" value="Poll&lt;br&gt;Flag 1" style="rounded=0;whiteSpace=wrap;html=1;fillColor=#ffff88;strokeColor=#36393d;" parent="1" vertex="1">
          <mxGeometry x="1280" y="340" width="40" height="40" as="geometry" />
        </mxCell>
        <mxCell id="nkol4YsRaVg4eansRC3j-44" value="Poll&lt;br&gt;Flag 4" style="rounded=0;whiteSpace=wrap;html=1;fillColor=#ffff88;strokeColor=#36393d;" parent="1" vertex="1">
          <mxGeometry x="1680" y="340" width="40" height="40" as="geometry" />
        </mxCell>
        <mxCell id="2ffJb73h3cShL5Usjrnv-1" value="4 Calculate Data （40K 0.7 us）" style="rounded=0;whiteSpace=wrap;html=1;fillColor=#eeeeee;strokeColor=#36393d;" vertex="1" parent="1">
          <mxGeometry x="1720" y="220" width="100" height="40" as="geometry" />
        </mxCell>
      </root>
    </mxGraphModel>
  </diagram>
</mxfile>
